<svg xmlns="http://www.w3.org/2000/svg" version="1.1" xmlns:xlink="http://www.w3.org/1999/xlink" viewBox="0 0 20.388580799847016 3.519611716242239"><g transform="matrix(1,0,0,1,6.812292154134583,1.2310558581211195)"><g clip-path="url(#SvgjsClipPath1001)"><g clip-path="url(#SvgjsClipPath100084f29b92-9072-4791-846f-127bd6412d61)"><path d=" M -6.161412074653278 1.5411273548714015 C -6.1596756377802 1.5319855254513746 -6.157520413190674 1.5236710571296963 -6.153199749677075 1.5153463744734705 C -6.126959124224506 1.464836490136002 -6.076796527261653 1.4709548765299645 -6.028554225193734 1.4689426526241038 C -5.9361349262078065 1.4650918484996902 -5.843644126880046 1.472303168690237 -5.751183970555928 1.4687383659331537 C -5.730060726711665 1.4679212191693525 -5.708896625529211 1.4681459345293977 -5.6877631673504 1.4675024314529042 C -5.679652985719672 1.4672470730892164 -5.671154659376139 1.4688915809513663 -5.663238550101814 1.4669712860564332 C -5.740407847608299 1.4184940542939213 -5.808435315694758 1.362621644319007 -5.864552869698812 1.2902122267116645 C -5.9088115812932 1.233114096591048 -5.9472787651991466 1.1693255773418088 -5.971190522374882 1.1009201788770921 C -5.988462962094732 1.051513442670756 -5.998902012002294 1.0004315555986274 -6.003529105552318 0.9483486637408415 C -6.009228704229833 0.884100499436964 -6.008820130847932 0.8193620470748059 -5.997267718474691 0.7556450281673995 C -5.949117345417699 0.4900416869283334 -5.749478176686494 0.2802698983259915 -5.5140888370389805 0.16358134045516548 C -5.238383518932421 0.02691354420939751 -4.928490823095324 0.03664780503318055 -4.628883962147577 0.0331851456215726 C -4.5805701597378246 0.03263357155600677 -4.53218485698624 0.033757148356233446 -4.483860840241941 0.034053364058111435 C -4.461552733590166 0.03418615040722928 -4.438202764814543 0.036126873971257245 -4.415996801508243 0.03401250671992151 C -4.404485246473191 0.024359960572518546 -4.395394488725902 0.010580823267918982 -4.384597937109177 -0.00011358500333058519 C -4.349276768243866 -0.035087466494026276 -4.31467060279688 -0.07092956642126091 -4.277429139036636 -0.1038912240060959 C -4.167022396912533 -0.20164240562582675 -4.045165385760663 -0.28389844173697537 -3.913502613443179 -0.35039375964130637 C -3.647929915207756 -0.4845284009192902 -3.3515814269806654 -0.5511054335000014 -3.056591445248395 -0.5753644780503525 C -2.9873484713507823 -0.5810538623933191 -2.9176560667330786 -0.5799404999276399 -2.8481781631408727 -0.5803082159713504 C -2.657282464782341 -0.5813092207570071 -2.469737068155394 -0.5692563059909378 -2.281589025790145 -0.536417220420673 C -2.0980680769749194 -0.5043850672796619 -1.9129434776357348 -0.4582979898012684 -1.7424968770413303 -0.38226248342955715 C -1.5797620990303 -0.30967942213490646 -1.4246063572535288 -0.21430818046474692 -1.288204133705996 -0.09943777414337879 C -1.2460189320247546 -0.06391231858711721 -1.20709210306417 -0.024975275291985066 -1.168951777863743 0.014809557770590787 C -1.1521594118676273 0.03231692718503354 -1.1367357667008777 0.05737268983009114 -1.117348959729692 0.07159104352023371 C -1.0763281921868666 0.0766267104521593 -1.0367272171461455 0.07681056847401468 -0.9961252373197684 0.0867389016542004 C -0.8786910330269739 0.11545139606726884 -0.754627725612842 0.18396915221200805 -0.6768966397062428 0.2776448143472797 C -0.5998907715525164 0.37043182937691765 -0.5567760654274503 0.48844825073892084 -0.5456628694397532 0.6078844646030287 C -0.5410153472206334 0.6577610601985507 -0.5427109267555199 0.7070145813866745 -0.5447946510032144 0.7568809626476488 C -0.5555605596162954 1.0149256963215527 -0.6215145177896089 1.3022651414777333 -0.8348715378181293 1.4688302949440812 C -0.7558228027549001 1.4705360888135166 -0.6766514956771026 1.469146939315054 -0.5975619032756825 1.469136724980507 C -0.5590845050351891 1.4691265106459594 -0.5161638712665262 1.4644177024195542 -0.4782993330988834 1.471751594624671 C -0.43145639486397336 1.480821923702865 -0.3840414538944028 1.5287782244034545 -0.4051749120732131 1.5789918930390443 C -0.40822899810292146 1.5862542849023282 -0.4120695878927876 1.5929446740309516 -0.4167375387810024 1.5992877757849593 C -0.4442855990556529 1.6367845979088913 -0.4843155761473694 1.6329337937844777 -0.5260922044467122 1.6331380804754283 C -0.5737522894454221 1.633373010170021 -0.6214123744441338 1.6332300094863559 -0.6690826737773916 1.6333627958354735 C -0.7395105104825168 1.6335466538573291 -0.8097544891657869 1.6367437405707017 -0.8801721115363632 1.637172742621697 C -1.0776458413434957 1.638378034098304 -1.2751399998197224 1.6375404586654079 -1.4726035152923078 1.6374893869926699 C -2.53888811304208 1.6372135999598871 -3.6051829251264 1.6385312491165172 -4.671467522876172 1.6372340286289822 C -4.736665620292969 1.6371625282871496 -4.801863717709765 1.6336794402064463 -4.8671537441374895 1.6335875111955187 C -5.199722262670072 1.6331278661408803 -5.532229495195369 1.635947022475995 -5.8647877993934046 1.6369378129271044 C -5.912447884392115 1.637070599276222 -5.960097755056279 1.63724424296353 -6.00775784005499 1.6372544572980772 C -6.035448901013307 1.6372646716326247 -6.064723183826488 1.6400327562950014 -6.091872885053787 1.6336998688755417 C -6.135998810299057 1.623403819651645 -6.16420058798475 1.5863768569168983 -6.161412074653278 1.5411273548714015 Z M -5.838628888617215 1.0916864204461376 C -5.82606525712377 1.1170690417967157 -5.795738897852194 1.1372627811971552 -5.774309223971506 1.1548722939570735 C -5.703871172931834 1.212756927837848 -5.620379202340435 1.2466174468628646 -5.532484853559057 1.268190121427219 C -5.403293950202071 1.2998954158627094 -5.2718048215718945 1.3009781353247463 -5.139559832185201 1.3005695619428455 C -5.0393367816049714 1.3002631319064202 -4.939042230682909 1.3009066349829137 -4.8388293944372265 1.2996911291717592 C -4.789851660281887 1.2991089121025508 -4.740107851035482 1.2985981953751753 -4.691211831556521 1.2956053953527529 C -4.675471542018799 1.2946350335707386 -4.659046892066392 1.293909815817865 -4.643449603212336 1.2915809475410311 C -4.630293540315134 1.289619795307908 -4.615247825526643 1.285809848521685 -4.602050905291252 1.2884042894967536 C -4.595738446540887 1.2918363059047193 -4.581724379541694 1.2893235796060298 -4.574288343991102 1.289578937969718 C -4.550509373164484 1.2904062990680667 -4.526648687661487 1.290130512035284 -4.502849288165773 1.290191798042569 C -4.416599447246546 1.2904062990680667 -4.330349606327319 1.2902224410462115 -4.244099765408091 1.290253084049854 C -4.025063575371152 1.2903143700571391 -3.8060273853342124 1.29076380077723 -3.5869911952972733 1.290365441729877 C -3.5177584357342075 1.2902428697153066 -3.4485256761711427 1.290253084049854 -3.379292916608077 1.2902224410462115 C -3.3464334023687172 1.290202012377117 -3.3104789447614595 1.294349032203408 -3.2779769322312635 1.2903450130607816 C -3.3170161188718703 1.2252388446549127 -3.3365765695303637 1.149387196305057 -3.3444416071319516 1.074383337722645 C -3.364717061208771 0.8810259847381617 -3.3194573448287263 0.6919688665981828 -3.197130474287672 0.5384065610108232 C -3.1535867661116104 0.48373944251251577 -3.099113719969705 0.43317848650231017 -3.0344467679493796 0.40498692315116525 C -2.85723827788452 0.32771548229920455 -2.6579055391897395 0.42696817109742036 -2.5558541227255045 0.5774253189823352 C -2.5120652705203015 0.6419696989880906 -2.479318113960965 0.7154209787192801 -2.4588077301895517 0.7905678379853575 C -2.4318112439804667 0.8894732394089576 -2.4325773190715303 0.9919434435896409 -2.449900830464118 1.092033707820753 C -2.4465709574016272 1.0856191057249132 -2.4520866980572866 1.102513615066505 -2.4529242734901833 1.1052919140634292 C -2.4560498598617224 1.115577748952778 -2.4590528742186923 1.125914655514865 -2.462076317244757 1.1362311334078559 C -2.4711262176538566 1.167037566403165 -2.479992260041101 1.1981402151003522 -2.4932096089455866 1.227516641259009 C -2.519123375692636 1.2850846307688109 -2.5484895875167455 1.3422746899003544 -2.5880497052192757 1.3918244267903561 C -2.610122882176458 1.4194746304104826 -2.6379773724875353 1.442058524095041 -2.6645244279765303 1.4651633488415228 C -2.5973447496575157 1.4667363563618405 -2.529235566894677 1.463069410259282 -2.461677958197404 1.4645402744341243 C -2.4183793940504827 1.465479993212496 -2.375101258572656 1.4691162963114115 -2.33182312309483 1.4697189420497154 C -2.1794048229767915 1.4718333093010512 -2.0267924505023514 1.4695452983624073 -1.8743537217152175 1.4695452983624073 C -1.7402497234408765 1.4695452983624073 -1.605532865093684 1.4707608041735618 -1.471571867503009 1.4659907099398715 C -1.4821539180942347 1.455653803377785 -1.4956776970351475 1.447635550757985 -1.5068521790301297 1.437758289250537 C -1.523164471302513 1.4233254345348962 -1.5375462543454166 1.4067373552297298 -1.5508044605880924 1.3894955585135222 C -1.5606919364300875 1.3766254969836518 -1.5705691979375365 1.3636226491046637 -1.5790573099465224 1.349761797123684 C -1.582285039663537 1.3444809861626181 -1.5856761987333128 1.3346445819933601 -1.590834437679808 1.3313759949381545 C -1.769289076559465 1.3328060017748071 -1.9478662874536923 1.3311819225817518 -2.1263311406678973 1.3311512795781093 C -2.188750939087769 1.3311410652435618 -2.251170737507641 1.331263637258132 -2.3135803215929656 1.3309980645598967 C -2.342323459009676 1.3308754925453266 -2.3734465363759587 1.3340827935932467 -2.401883243756244 1.3304669191634257 C -2.394682137900245 1.3087001722426685 -2.3841307303126604 1.2878629297657351 -2.3765108367402137 1.2661574688522634 C -2.3637429185558183 1.2297535805249153 -2.354008657732035 1.1923486874119105 -2.346082334123162 1.1545965069242903 C -2.3407300228202637 1.129121956562785 -2.335765856230171 1.1031979754811885 -2.3327321988695586 1.077345494741425 C -2.3309242616546486 1.0619627069128654 -2.331506478723857 1.043474761381861 -2.3257455940390575 1.0291031926735053 C -2.2551747566502676 1.025855034287395 -2.184317917894147 1.0273463271313323 -2.113808366512642 1.0232095216395884 C -2.011552663357456 1.017203492925649 -1.9052316550523596 1.001218059358786 -1.808573407229213 0.9662339635335425 C -1.7525886395742765 0.945958509456723 -1.6921708507257174 0.9225881120120055 -1.643652761625015 0.8873180148194318 C -1.6246847423702775 0.8735184488457371 -1.6047055039953353 0.8604441006249165 -1.5881276390247159 0.8437334493051797 C -1.5814985359033793 0.8370532745111042 -1.569946123530138 0.8213334136424765 -1.5617542272230294 0.8195561194312088 C -1.558761427200607 0.8189024020201675 -1.564941099601855 0.8247858587195372 -1.5663506777694112 0.827513086043724 C -1.5697929085119249 0.8341626178341567 -1.5722647774724239 0.8409551503082554 -1.5761257959313841 0.8474106097422854 C -1.5862175584643303 0.8642744760802351 -1.595716889593521 0.881383486447325 -1.6053796500754718 0.8985027111489622 C -1.635093149274197 0.9511576057414085 -1.6741323359148037 0.9995735514966356 -1.7229057833791934 1.035701652791201 C -1.7707190833961173 1.0711045363328924 -1.8241911247523648 1.1056698444416875 -1.8801656780727551 1.1264355865767879 C -1.9220750927212142 1.1419920180926555 -1.9658128732536788 1.1513483485381801 -2.0097855834807365 1.1588865274342472 C -2.047313048608311 1.1653215581991825 -2.0849733000850037 1.1701733671092525 -2.1227765522453614 1.174473601953757 C -2.145860948322748 1.1770986859324686 -2.1711312119933037 1.1746778886447076 -2.1933269609650563 1.1827267842681501 C -2.144104082780575 1.186199658014306 -2.0947790612506196 1.183145571984598 -2.0454744683897577 1.1843712921303 C -1.8853239170192504 1.1883242396001887 -1.724907792950507 1.188140381578334 -1.5645325262199536 1.1882118819201666 C -1.4873019427061838 1.188242524923809 -1.4086719953594038 1.184340649126658 -1.3316967702093203 1.1908573945679732 C -1.3960879351968636 0.9924950176552069 -1.3812669357684175 0.7773198460772289 -1.2738427793321891 0.5966997682734986 C -1.2136088485054843 0.4954246412348745 -1.1102193542155252 0.405119709500283 -0.9872694092670713 0.3978062459642614 C -0.9538685352966931 0.3958246650620433 -0.9201612312898897 0.4004926159502581 -0.8879554344615705 0.40929737233021724 C -0.8619293100344994 0.4164167635098359 -0.8366284033603009 0.42683538474830274 -0.8138912946575294 0.4414520974857984 C -0.7486421255679963 0.48340236947244775 -0.7132800993644945 0.5508680491587928 -0.6734544089637291 0.6145952824007469 C -0.6773154274226902 0.5454033801758714 -0.7043731996390603 0.47866291824240037 -0.7464460436402796 0.4237915130531428 C -0.7476411207823395 0.41324010546555845 -0.7625234062180697 0.39796967531702154 -0.7687950076302457 0.38941006296620295 C -0.7907660412419526 0.3594105624001477 -0.812297858468118 0.3334661526494562 -0.8412759255794215 0.3097893251683136 C -0.9222245268684874 0.24368215197678822 -1.0217121453612972 0.20131309227369054 -1.1236409898109612 0.17964848869840855 C -1.1520266255185092 0.1736220313153739 -1.1806165479170074 0.168657864725281 -1.20951290035193 0.16596128040473668 C -1.225396190573318 0.16446998756079934 -1.2459270030138265 0.16627792477570968 -1.2609522891332228 0.1612320435092367 C -1.2645783778975908 0.14723840517913944 -1.273679349979428 0.1352365620858078 -1.2814524585700875 0.1232653619961187 C -1.298275467569848 0.09735159524906989 -1.3171515578136583 0.0736441247642845 -1.3366609367994133 0.04974258192309644 C -1.3434636836080598 0.049262508199363175 -1.357212177909017 0.05883333967038595 -1.3637493520194273 0.0620814980564961 C -1.3871503924677864 0.07371562510611729 -1.4109804349671418 0.08428746136279652 -1.434616405110095 0.09541087168504181 C -1.5053813148552875 0.12869938797539737 -1.5801196007394642 0.15605337589364587 -1.655899748747487 0.17357095964263636 C -1.6576770429587553 0.17555254054485459 -1.66439807509102 0.17564446955578217 -1.667064016407923 0.17595089959220778 C -1.6764305611879946 0.1770131903851494 -1.68570517695714 0.17858619790546693 -1.6951023647408547 0.17944420200745825 C -1.732139541810148 0.1827945037390436 -1.7702083666687418 0.1858996614414884 -1.8070412570470857 0.19101704304979417 C -1.8531896205327643 0.19742143081108676 -1.9005432754950498 0.19636935435269265 -1.9470593550244386 0.1974520738147294 C -2.0256995167057665 0.19928043969873488 -2.103788104321528 0.19912722468052202 -2.1824384803374044 0.19751335982201446 C -2.2190670840247972 0.19675749906549833 -2.255348400337575 0.1956952082725566 -2.291885075014041 0.19346848334119815 C -2.306266858056944 0.1925900505701117 -2.3275943885921575 0.19421412976316677 -2.340832166165739 0.18892310446755334 C -2.33367191764793 0.14903612805950228 -2.3201787817106605 0.11295909843767482 -2.3015376211614442 0.0770454981686075 C -2.297094385633274 0.06849610015233631 -2.288973989667998 0.043021549790830615 -2.2800262326043748 0.0443391989474603 C -2.192520028535802 0.06559522914084182 -2.1068421903512364 0.06686180662473373 -2.0173748340495408 0.06574844415905445 C -1.8896037231946599 0.06415500796964191 -1.7644168389803 0.05296009730556406 -1.642437255813861 0.012368331813734312 C -1.5984543312522552 -0.002268809592856469 -1.5550331950907639 -0.019020318250783097 -1.512112561322101 -0.036456187323393396 C -1.5015407250654222 -0.040756422167897766 -1.4749119549000458 -0.045720588757990566 -1.4684258524623743 -0.055015633196230485 C -1.5017041544181815 -0.08614892489706011 -1.5434705683829755 -0.11184819061861112 -1.5819377522889218 -0.13613787817260486 C -1.5921827298400801 -0.14260355194118263 -1.6026830657549276 -0.1486708666624073 -1.6131834016697741 -0.15470753837998946 C -1.615471412608418 -0.15602518753661904 -1.6225193034462038 -0.15860941417714064 -1.6232547355336253 -0.16116299781401966 C -1.680669510025214 -0.20188754965496714 -1.7463578955002914 -0.23743343388032379 -1.8114742782407074 -0.2640417753766037 C -1.8771218063775947 -0.290874832232929 -1.9504096567560243 -0.3084332733201095 -2.021583139883117 -0.30961813612762135 C -2.0897025369805036 -0.3107519272623957 -2.1524185511022536 -0.2849607325299171 -2.2075759576588414 -0.2465241916276133 C -2.3125180308000233 -0.17339977060194417 -2.389258326255514 -0.06047008784460417 -2.4400235689566694 0.05555453828063328 C -2.456662719934574 0.09359272013558384 -2.469185494089829 0.1329791941508066 -2.4845172102456505 0.17140552071856285 C -2.5569164135184463 0.15383686529683493 -2.63125634035527 0.14624761472803027 -2.7046156910755315 0.13406191361284348 C -2.9017932051807858 0.10131475705350623 -3.101238301555589 0.08472667774833964 -3.300959184963175 0.08630989960320468 C -3.3131857434165517 0.08742326206888407 -3.3295695360307676 0.08935377129836464 -3.341663308135027 0.08688190233786552 C -3.349855204442135 0.08520675147207302 -3.3559940195051925 0.08215266544236555 -3.364962205237912 0.08177473506410748 C -3.4144915134588185 0.07968079648186666 -3.464214894036128 0.07966036781277164 -3.5138157025988668 0.07939479511453629 C -3.6713003126524724 0.07856743401618738 -3.8289177090551965 0.08162152004589496 -3.986187818083305 0.08837319518180287 C -4.062928113538795 0.09166221090610327 -4.1400156963689 0.09573773039056233 -4.2164904191261545 0.10314312293751171 C -4.308123214351923 0.11201937965930331 -4.398898005475701 0.12798438455707117 -4.489846440286785 0.1416409498471004 C -4.693132126451454 0.1721511671405317 -4.89778653344549 0.2143465831563215 -5.087742513025651 0.2950602547507949 C -5.158997710829125 0.32534575668418086 -5.230579767338119 0.36163728733150613 -5.296227295475006 0.40273976955071167 C -5.347217253536207 0.4346595650117001 -5.395153125567701 0.4711758110190708 -5.445765153250644 0.503391822181937 C -5.427144421370522 0.457274101699901 -5.4010672252707135 0.40889901328286415 -5.368657141751444 0.3709834034424836 C -5.344990528604849 0.3433025568187146 -5.316002247158997 0.3205552337813957 -5.287187609400454 0.2985637715005931 C -5.256166675379647 0.27488694401945035 -5.224910811664247 0.2517004045965884 -5.190662147926425 0.23281410001823077 C -5.154053972908127 0.2126305749523386 -5.115494859991253 0.19636935435269265 -5.076854032397999 0.18056777880768504 C -5.064464044591862 0.17550146887211693 -5.051828912756584 0.171150162354875 -5.039724926317777 0.16540970633917085 C -5.034740331058589 0.16303998072414705 -5.029255233406573 0.16202876160394308 -5.024158280467362 0.15987353701441687 C -5.022452486597927 0.1591585335960909 -5.01775389270607 0.15687052265744716 -5.0196026872591695 0.15671730763923442 C -5.027651582882613 0.1560738045627409 -5.037140699677256 0.16190618958937286 -5.044872950929725 0.16379584148066317 C -5.070010428251162 0.1699142278746255 -5.097446130845792 0.17478646545379084 -5.12323732557827 0.17812655285082857 C -5.169242688380283 0.18407129555748303 -5.216187769960668 0.1883511017328925 -5.261518986682546 0.19833050658581575 C -5.342171372269734 0.2161034486984943 -5.418993382401604 0.24617444960638213 -5.495498748162501 0.2765723092197907 C -5.483507119403717 0.2919755257174451 -5.484579624531206 0.3083286753280188 -5.485774701673265 0.3268472638626658 C -5.4883282853101445 0.36639716723064875 -5.505171722978999 0.4003802582702355 -5.527163185259802 0.4326881984440295 C -5.587897618479333 0.521889982047489 -5.683728505204131 0.6002237136923915 -5.78165333051117 0.6450748566905357 C -5.805769374377856 0.6561165523364006 -5.8340528667399285 0.6564536253764687 -5.857637765210144 0.6678834657351392 C -5.866473164593745 0.6776177265589224 -5.869006319561529 0.6927655846928892 -5.871651832209336 0.7052577158445018 C -5.876289140093908 0.7271368204452816 -5.880180801556512 0.7490261393806089 -5.883592389295382 0.7711197450068864 C -5.896401164817967 0.8541112132054564 -5.892642289704481 0.9315460834101773 -5.868567103175986 1.0124231843574107 C -5.860456921545258 1.0396546002610898 -5.8523263112454345 1.0668553731611254 -5.838628888617215 1.0916864204461376 Z M -4.8609536430671465 1.45867724640385 C -4.865315163918936 1.464693489452337 -4.863772799402262 1.4617109037644624 -4.8660097386681676 1.467390073772881 C -4.813528487763029 1.4751121106908034 -4.756757216347934 1.46961679870424 -4.703734605711777 1.4696065843696924 C -4.601591260236614 1.4695963700351449 -4.499437700426903 1.469637227373335 -4.39729435495174 1.4696678703769774 C -4.244089551073543 1.4697189420497154 -4.090874532860799 1.4694329406823847 -3.9376697289826024 1.4694737980205748 C -3.8431258484107915 1.4695044410242173 -3.747979322100677 1.4728343140867075 -3.653680585558007 1.4662460683035596 C -3.6681032259390998 1.452640574686268 -3.681198002829016 1.4377174319123465 -3.6970608643813088 1.4256747314808247 C -3.7190216836584686 1.4167474030862954 -3.754169208836472 1.4231313621784936 -3.7776417496266648 1.423090504840303 C -3.8377837514424407 1.422978147160281 -3.897935967592764 1.4230496475021135 -3.9580881837430875 1.4230190044984705 C -4.168054044701832 1.4229372898220904 -4.378019905660577 1.423070076171208 -4.587985766619322 1.423090504840303 C -4.6433270311977655 1.423090504840303 -4.6986785101107555 1.4232028625203261 -4.7540197746891995 1.4231211478439456 C -4.775837593282693 1.423090504840303 -4.80505059008859 1.4204858495306865 -4.825918475569166 1.427870813408541 C -4.840524973972114 1.4330290523550366 -4.852087600679903 1.4466141173032332 -4.8609536430671465 1.45867724640385 Z" fill="#1a282c" transform="matrix(1,0,0,1,0,0)" fill-rule="evenodd"></path></g><g clip-path="url(#SvgjsClipPath100084f29b92-9072-4791-846f-127bd6412d61)"><path d=" M -3.300959184963175 0.08630989960320468 C -3.3544005833157797 0.0963403761288657 -3.409660133217843 0.09310243207730318 -3.4636735343051095 0.09691237886352677 C -3.5512614530500612 0.10309205126477394 -3.640350878973498 0.11464446363801484 -3.726723291907296 0.1302826098302623 C -3.9418576061470842 0.16920943879084682 -4.1439686438387895 0.2600761589255518 -4.327530449992204 0.3764787154290473 C -4.38972553305203 0.41592647545155526 -4.446323160779818 0.45811167713279766 -4.502900359838511 0.5051282590550149 C -4.536005018107011 0.5326456763260238 -4.574666274369361 0.5640138977214463 -4.597096953035706 0.6013575048271661 C -4.600161253399961 0.6043809478532306 -4.606759713517657 0.6000704986741788 -4.610722875322093 0.5989469218739519 C -4.621437712262438 0.5959132645133397 -4.632448764904661 0.5937478255892662 -4.6433168168632175 0.5913372426360523 C -4.685185374173487 0.5820932698705502 -4.7318342400519935 0.5774457476514302 -4.774632301806086 0.5752700943928094 C -4.808400891820176 0.5735540861888265 -4.842210339172455 0.5694172806970826 -4.875978929186543 0.5685899195987337 C -5.010174856471812 0.5653009038744333 -5.145780361924638 0.5742384466035101 -5.275686268699951 0.6097332591561292 C -5.351660489064376 0.6304887869566825 -5.422445827478665 0.6653809537709979 -5.494160670336776 0.6971168912101308 C -5.511085822682011 0.7046039984334606 -5.527081470583422 0.7138683998680578 -5.544037265932299 0.721212506407722 C -5.548174071424043 0.723010229288085 -5.557887903578731 0.7283421119218884 -5.556069752029273 0.7313451262788578 C -5.5806556552851445 0.7386994471530698 -5.605486702570157 0.7495062131043421 -5.6286323846548285 0.7605479087502073 C -5.700449370858415 0.7948272154916719 -5.793542815924479 0.8451736704763794 -5.810825469978877 0.931168153031919 C -5.815850922576254 0.9561626296696918 -5.8105394686115455 0.9802684592018297 -5.804799012595842 1.0044866464139912 C -5.807842884291001 1.0413706084650722 -5.774053865607818 1.069296599117982 -5.753308552141812 1.0960990129706647 C -5.771735211665531 1.0987343112839238 -5.793501958586289 1.0962828709925199 -5.8118366890990805 1.0934024286501205 C -5.820815089166347 1.0919928504825633 -5.830488063982845 1.0874372572743711 -5.838628888617215 1.0916864204461376 C -5.8523263112454345 1.0668553731611254 -5.860456921545258 1.0396546002610898 -5.868567103175986 1.0124231843574107 C -5.892642289704481 0.9315460834101773 -5.896401164817967 0.8541112132054564 -5.883592389295382 0.7711197450068864 C -5.880180801556512 0.7490261393806089 -5.876289140093908 0.7271368204452816 -5.871651832209336 0.7052577158445018 C -5.869006319561529 0.6927655846928892 -5.866473164593745 0.6776177265589224 -5.857637765210144 0.6678834657351392 C -5.8340528667399285 0.6564536253764687 -5.805769374377856 0.6561165523364006 -5.78165333051117 0.6450748566905357 C -5.683728505204131 0.6002237136923915 -5.587897618479333 0.521889982047489 -5.527163185259802 0.4326881984440295 C -5.505171722978999 0.4003802582702355 -5.4883282853101445 0.36639716723064875 -5.485774701673265 0.3268472638626658 C -5.484579624531206 0.3083286753280188 -5.483507119403717 0.2919755257174451 -5.495498748162501 0.2765723092197907 C -5.418993382401604 0.24617444960638213 -5.342171372269734 0.2161034486984943 -5.261518986682546 0.19833050658581575 C -5.216187769960668 0.1883511017328925 -5.169242688380283 0.18407129555748303 -5.12323732557827 0.17812655285082857 C -5.097446130845792 0.17478646545379084 -5.070010428251162 0.1699142278746255 -5.044872950929725 0.16379584148066317 C -5.037140699677256 0.16190618958937286 -5.027651582882613 0.1560738045627409 -5.0196026872591695 0.15671730763923442 C -5.01775389270607 0.15687052265744716 -5.022452486597927 0.1591585335960909 -5.024158280467362 0.15987353701441687 C -5.029255233406573 0.16202876160394308 -5.034740331058589 0.16303998072414705 -5.039724926317777 0.16540970633917085 C -5.051828912756584 0.171150162354875 -5.064464044591862 0.17550146887211693 -5.076854032397999 0.18056777880768504 C -5.115494859991253 0.19636935435269265 -5.154053972908127 0.2126305749523386 -5.190662147926425 0.23281410001823077 C -5.224910811664247 0.2517004045965884 -5.256166675379647 0.27488694401945035 -5.287187609400454 0.2985637715005931 C -5.316002247158997 0.3205552337813957 -5.344990528604849 0.3433025568187146 -5.368657141751444 0.3709834034424836 C -5.4010672252707135 0.40889901328286415 -5.427144421370522 0.457274101699901 -5.445765153250644 0.503391822181937 C -5.395153125567701 0.4711758110190708 -5.347217253536207 0.4346595650117001 -5.296227295475006 0.40273976955071167 C -5.230579767338119 0.36163728733150613 -5.158997710829125 0.32534575668418086 -5.087742513025651 0.2950602547507949 C -4.89778653344549 0.2143465831563215 -4.693132126451454 0.1721511671405317 -4.489846440286785 0.1416409498471004 C -4.398898005475701 0.12798438455707117 -4.308123214351923 0.11201937965930331 -4.2164904191261545 0.10314312293751171 C -4.1400156963689 0.09573773039056233 -4.062928113538795 0.09166221090610327 -3.986187818083305 0.08837319518180287 C -3.8289177090551965 0.08162152004589496 -3.6713003126524724 0.07856743401618738 -3.5138157025988668 0.07939479511453629 C -3.464214894036128 0.07966036781277164 -3.4144915134588185 0.07968079648186666 -3.364962205237912 0.08177473506410748 C -3.3559940195051925 0.08215266544236555 -3.349855204442135 0.08520675147207302 -3.341663308135027 0.08688190233786552 C -3.3295695360307676 0.08935377129836464 -3.3131857434165517 0.08742326206888407 -3.300959184963175 0.08630989960320468 Z" fill="#84887f" transform="matrix(1,0,0,1,0,0)" fill-rule="evenodd"></path></g><g clip-path="url(#SvgjsClipPath100084f29b92-9072-4791-846f-127bd6412d61)"><path d=" M -5.838628888617215 1.0916864204461376 C -5.830488063982845 1.0874372572743711 -5.820815089166347 1.0919928504825633 -5.8118366890990805 1.0934024286501205 C -5.793501958586289 1.0962828709925199 -5.771735211665531 1.0987343112839238 -5.753308552141812 1.0960990129706647 C -5.774053865607818 1.069296599117982 -5.807842884291001 1.0413706084650722 -5.804799012595842 1.0044866464139912 C -5.796964617997896 1.0093180266549666 -5.792858455509795 1.0192565741696997 -5.7877002165633 1.0268049674003144 C -5.78033568135454 1.0375913046824912 -5.770805707221707 1.04775456755727 -5.7615004484489205 1.0568861826427498 C -5.730438657089923 1.0873963999361806 -5.691930615845787 1.1090610035114628 -5.652339855139614 1.1264049435731454 C -5.61077772786577 1.1446171020713667 -5.565068580765635 1.1561797287791555 -5.520891583847627 1.1659344182720335 C -5.447736519818315 1.1821037098607516 -5.374877671490881 1.1938604089249432 -5.3002517432867275 1.2002647966862359 C -5.191254579330181 1.209610912797213 -5.0837282795484775 1.2113269210011959 -4.974363399548221 1.2091308390734796 C -4.872352840422176 1.2070879721639765 -4.772078718169208 1.2020931625702413 -4.671457308541624 1.1838197180647345 C -4.567914599233452 1.1650253424973047 -4.454188198381406 1.1432994529147371 -4.370777942466388 1.0745978387481427 C -4.332719331942343 1.0432500460218153 -4.299553387666557 1.0032302832646467 -4.295927298902189 0.95205646718159 C -4.29250549682877 0.9035996640881726 -4.321442706601884 0.859882312224803 -4.357152020180002 0.8298010969823676 C -4.421675971516661 0.7754301941859384 -4.499999488827016 0.748791209686016 -4.581223877148866 0.730609694191437 C -4.702171812526006 0.7035417076405189 -4.826327048951066 0.6916011505544722 -4.949930711310561 0.6869740570044472 C -5.106158958214823 0.681111028974173 -5.2632349948865285 0.6873519873827053 -5.418574594685156 0.7065038646592984 C -5.464865958854499 0.71221367767136 -5.510105246565449 0.7240520914119314 -5.556069752029273 0.7313451262788578 C -5.557887903578731 0.7283421119218884 -5.548174071424043 0.723010229288085 -5.544037265932299 0.721212506407722 C -5.527081470583422 0.7138683998680578 -5.511085822682011 0.7046039984334606 -5.494160670336776 0.6971168912101308 C -5.422445827478665 0.6653809537709979 -5.351660489064376 0.6304887869566825 -5.275686268699951 0.6097332591561292 C -5.145780361924638 0.5742384466035101 -5.010174856471812 0.5653009038744333 -4.875978929186543 0.5685899195987337 C -4.842210339172455 0.5694172806970826 -4.808400891820176 0.5735540861888265 -4.774632301806086 0.5752700943928094 C -4.7318342400519935 0.5774457476514302 -4.685185374173487 0.5820932698705502 -4.6433168168632175 0.5913372426360523 C -4.632448764904661 0.5937478255892662 -4.621437712262438 0.5959132645133397 -4.610722875322093 0.5989469218739519 C -4.606759713517657 0.6000704986741788 -4.600161253399961 0.6043809478532306 -4.597096953035706 0.6013575048271661 C -4.574666274369361 0.5640138977214463 -4.536005018107011 0.5326456763260238 -4.502900359838511 0.5051282590550149 C -4.446323160779818 0.45811167713279766 -4.38972553305203 0.41592647545155526 -4.327530449992204 0.3764787154290473 C -4.1439686438387895 0.2600761589255518 -3.9418576061470842 0.16920943879084682 -3.726723291907296 0.1302826098302623 C -3.640350878973498 0.11464446363801484 -3.5512614530500612 0.10309205126477394 -3.4636735343051095 0.09691237886352677 C -3.409660133217843 0.09310243207730318 -3.3544005833157797 0.0963403761288657 -3.300959184963175 0.08630989960320468 C -3.101238301555589 0.08472667774833964 -2.9017932051807858 0.10131475705350623 -2.7046156910755315 0.13406191361284348 C -2.63125634035527 0.14624761472803027 -2.5569164135184463 0.15383686529683493 -2.4845172102456505 0.17140552071856285 C -2.469185494089829 0.1329791941508066 -2.456662719934574 0.09359272013558384 -2.4400235689566694 0.05555453828063328 C -2.389258326255514 -0.06047008784460417 -2.3125180308000233 -0.17339977060194417 -2.2075759576588414 -0.2465241916276133 C -2.1524185511022536 -0.2849607325299171 -2.0897025369805036 -0.3107519272623957 -2.021583139883117 -0.30961813612762135 C -1.9504096567560243 -0.3084332733201095 -1.8771218063775947 -0.290874832232929 -1.8114742782407074 -0.2640417753766037 C -1.7463578955002914 -0.23743343388032379 -1.680669510025214 -0.20188754965496714 -1.6232547355336253 -0.16116299781401966 C -1.62163065634057 -0.15905884489723138 -1.6158902003248663 -0.15580047217657367 -1.6183722836199124 -0.15487096773274972 C -1.6188523573436457 -0.15469732404544195 -1.6346539328886536 -0.15985556299193765 -1.6379633772820483 -0.16125492682494735 C -1.6579221869878955 -0.1697021814957433 -1.6777992820173617 -0.17845586620296472 -1.6977172343850189 -0.18702569288833093 C -1.7516284921268097 -0.21022244664574047 -1.8058461799050258 -0.23143761950093178 -1.8653446786443082 -0.23210155124652027 C -1.9970993799727212 -0.23356220108681514 -2.1328274574401176 -0.17881336791212787 -2.2129486976308352 -0.07231871591972305 C -2.2331935087040127 -0.04540394438701767 -2.251150308838546 -0.015894731879243063 -2.267493244114572 0.01352255161760374 C -2.2708435458461573 0.019549009000638273 -2.2864510490347625 0.03923203167370226 -2.2800262326043748 0.0443391989474603 C -2.288973989667998 0.043021549790830615 -2.297094385633274 0.06849610015233631 -2.3015376211614442 0.0770454981686075 C -2.3201787817106605 0.11295909843767482 -2.33367191764793 0.14903612805950228 -2.340832166165739 0.18892310446755334 C -2.3275943885921575 0.19421412976316677 -2.306266858056944 0.1925900505701117 -2.291885075014041 0.19346848334119815 C -2.255348400337575 0.1956952082725566 -2.2190670840247972 0.19675749906549833 -2.1824384803374044 0.19751335982201446 C -2.103788104321528 0.19912722468052202 -2.0256995167057665 0.19928043969873488 -1.9470593550244386 0.1974520738147294 C -1.9005432754950498 0.19636935435269265 -1.8531896205327643 0.19742143081108676 -1.8070412570470857 0.19101704304979417 C -1.7702083666687418 0.1858996614414884 -1.732139541810148 0.1827945037390436 -1.6951023647408547 0.17944420200745825 C -1.68570517695714 0.17858619790546693 -1.6764305611879946 0.1770131903851494 -1.667064016407923 0.17595089959220778 C -1.66439807509102 0.17564446955578217 -1.6576770429587553 0.17555254054485459 -1.655899748747487 0.17357095964263636 C -1.642518970490241 0.17913777197103287 -1.6266969662761381 0.17477625111924333 -1.6126216132696607 0.1739080326827045 C -1.5803443160995094 0.17191623744593876 -1.5485266639839956 0.16818800533609524 -1.5163821531629624 0.16468448858629714 C -1.4317972487749806 0.15546094448989 -1.3456904085394177 0.15676837931197218 -1.2609522891332228 0.1612320435092367 C -1.2459270030138265 0.16627792477570968 -1.225396190573318 0.16446998756079934 -1.20951290035193 0.16596128040473668 C -1.1806165479170074 0.168657864725281 -1.1520266255185092 0.1736220313153739 -1.1236409898109612 0.17964848869840855 C -1.0217121453612972 0.20131309227369054 -0.9222245268684874 0.24368215197678822 -0.8412759255794215 0.3097893251683136 C -0.812297858468118 0.3334661526494562 -0.7907660412419526 0.3594105624001477 -0.7687950076302457 0.38941006296620295 C -0.7625234062180697 0.39796967531702154 -0.7476411207823395 0.41324010546555845 -0.7464460436402796 0.4237915130531428 C -0.7489076982662315 0.42880675131597334 -0.7694385107067383 0.40651907333329274 -0.7732076001547732 0.4025559115288563 C -0.7878753845650062 0.38711183769301183 -0.804994609266644 0.3737617024394081 -0.8227164797065845 0.36197436037157416 C -0.8774448842121778 0.3255704720442262 -0.9415909051705791 0.30035128004640854 -1.006676644907353 0.2904025181971277 C -1.1279922963282036 0.27186350099338563 -1.2549258317501888 0.2919653113828975 -1.3748931910107673 0.3109435449721828 C -1.4561788653399024 0.323803392167506 -1.53818975742191 0.3328226495729627 -1.6194039314092112 0.3461217131538289 C -1.7865615162793151 0.3734961297411725 -1.954893749622384 0.38774512643495784 -2.1241861304129186 0.3914325012066112 C -2.20166185795583 0.39311786640695134 -2.2793520865242387 0.39518116198554976 -2.356797171063507 0.39022720973000424 C -2.4414842187969645 0.3848136124198206 -2.52634491021773 0.37928765742961434 -2.6107357422493096 0.3697270402931391 C -2.7369440599184207 0.35543718626116383 -2.862284159150993 0.33782767350124576 -2.988645691838317 0.36217864706252456 C -3.144547080037057 0.39221900496676987 -3.273165980659383 0.49194155315417143 -3.4018359529544453 0.5780279647206387 C -3.4893830143612075 0.6365969590160973 -3.5820372430417278 0.6895582836449691 -3.68080985811621 0.7267282470633806 C -3.7542202805092098 0.7543478076798648 -3.829459068786215 0.7767580576771157 -3.905065573106931 0.797442085135836 C -3.9599267639616405 0.8124571569206848 -4.015554029907414 0.8247245727122522 -4.069495930652847 0.8429775885486633 C -4.10226351588128 0.8540601415327186 -4.135500960498898 0.8635084009891713 -4.168237902723687 0.8747952406641769 C -4.181148821591748 0.879248690526894 -4.200229198526508 0.8826296352621216 -4.211117679154161 0.8906785308855648 C -4.146399655461098 1.021299441079203 -4.272005327391906 1.1510317041672073 -4.379909557551867 1.205954181029202 C -4.402197235534548 1.2172920923769452 -4.425792348339311 1.2275677129317466 -4.449244460460408 1.2362396829625881 C -4.488099789079159 1.2506010373363958 -4.529049056280153 1.258915505658074 -4.567628597866122 1.27369564774833 C -4.575340420449496 1.2766475904325625 -4.602193905974917 1.2800693925059803 -4.602050905291252 1.2884042894967536 C -4.615247825526643 1.285809848521685 -4.630293540315134 1.289619795307908 -4.643449603212336 1.2915809475410311 C -4.659046892066392 1.293909815817865 -4.675471542018799 1.2946350335707386 -4.691211831556521 1.2956053953527529 C -4.740107851035482 1.2985981953751753 -4.789851660281887 1.2991089121025508 -4.8388293944372265 1.2996911291717592 C -4.939042230682909 1.3009066349829137 -5.0393367816049714 1.3002631319064202 -5.139559832185201 1.3005695619428455 C -5.2718048215718945 1.3009781353247463 -5.403293950202071 1.2998954158627094 -5.532484853559057 1.268190121427219 C -5.620379202340435 1.2466174468628646 -5.703871172931834 1.212756927837848 -5.774309223971506 1.1548722939570735 C -5.795738897852194 1.1372627811971552 -5.82606525712377 1.1170690417967157 -5.838628888617215 1.0916864204461376 Z M -4.230688344147202 0.5468946730198089 C -4.238870026119763 0.5925221054435642 -4.20902374057192 0.6340229467101229 -4.168789476789254 0.6527253932666254 C -4.137656185088424 0.6671991053204559 -4.102498445575873 0.6693849729136242 -4.068688998223594 0.6708864800921094 C -4.038464782297493 0.6722245579178338 -4.008720640095126 0.6736749934235812 -3.9784249238271925 0.6727761319833997 C -3.8637383755276797 0.6693849729136242 -3.7525042723052273 0.6385581112492204 -3.6489615629970547 0.5901523798285405 C -3.594815375560671 0.5648412588197952 -3.5417110502481335 0.5352196886319979 -3.495521829424265 0.49701807742428705 C -3.444613586039443 0.4549043760848773 -3.384349012209098 0.40118719069948916 -3.375227611458165 0.3314641430781431 C -3.370263444868072 0.29355874757231015 -3.397055644386208 0.2634571036607797 -3.4282093647561322 0.24618466394092964 C -3.4558084967035216 0.2308733764542028 -3.4876261488190345 0.22639949792239056 -3.5186368685052942 0.22381527128186895 C -3.553590321326895 0.22089397160127933 -3.587981985748382 0.21803395792797475 -3.6231192965918386 0.22043432654664097 C -3.792033747004115 0.23198673891988186 -3.95314444582209 0.28787957756389115 -4.09284589942847 0.38363896394685626 C -4.127533779551835 0.4074077204389267 -4.159310574329158 0.43643685922296804 -4.1869914209529275 0.46805022464753077 C -4.206756158302372 0.49062390399754185 -4.225295175506114 0.5167828147737309 -4.230688344147202 0.5468946730198089 Z" fill="#fffffe" transform="matrix(1,0,0,1,0,0)" fill-rule="evenodd"></path></g><g clip-path="url(#SvgjsClipPath100084f29b92-9072-4791-846f-127bd6412d61)"><path d=" M -5.556069752029273 0.7313451262788578 C -5.510105246565449 0.7240520914119314 -5.464865958854499 0.71221367767136 -5.418574594685156 0.7065038646592984 C -5.2632349948865285 0.6873519873827053 -5.106158958214823 0.681111028974173 -4.949930711310561 0.6869740570044472 C -4.826327048951066 0.6916011505544722 -4.702171812526006 0.7035417076405189 -4.581223877148866 0.730609694191437 C -4.499999488827016 0.748791209686016 -4.421675971516661 0.7754301941859384 -4.357152020180002 0.8298010969823676 C -4.321442706601884 0.859882312224803 -4.29250549682877 0.9035996640881726 -4.295927298902189 0.95205646718159 C -4.299553387666557 1.0032302832646467 -4.332719331942343 1.0432500460218153 -4.370777942466388 1.0745978387481427 C -4.454188198381406 1.1432994529147371 -4.567914599233452 1.1650253424973047 -4.671457308541624 1.1838197180647345 C -4.772078718169208 1.2020931625702413 -4.872352840422176 1.2070879721639765 -4.974363399548221 1.2091308390734796 C -5.0837282795484775 1.2113269210011959 -5.191254579330181 1.209610912797213 -5.3002517432867275 1.2002647966862359 C -5.374877671490881 1.1938604089249432 -5.447736519818315 1.1821037098607516 -5.520891583847627 1.1659344182720335 C -5.565068580765635 1.1561797287791555 -5.61077772786577 1.1446171020713667 -5.652339855139614 1.1264049435731454 C -5.691930615845787 1.1090610035114628 -5.730438657089923 1.0873963999361806 -5.7615004484489205 1.0568861826427498 C -5.770805707221707 1.04775456755727 -5.78033568135454 1.0375913046824912 -5.7877002165633 1.0268049674003144 C -5.792858455509795 1.0192565741696997 -5.796964617997896 1.0093180266549666 -5.804799012595842 1.0044866464139912 C -5.8105394686115455 0.9802684592018297 -5.815850922576254 0.9561626296696918 -5.810825469978877 0.931168153031919 C -5.793542815924479 0.8451736704763794 -5.700449370858415 0.7948272154916719 -5.6286323846548285 0.7605479087502073 C -5.605486702570157 0.7495062131043421 -5.5806556552851445 0.7386994471530698 -5.556069752029273 0.7313451262788578 Z" fill="#1a282c" transform="matrix(1,0,0,1,0,0)" fill-rule="evenodd"></path></g><g clip-path="url(#SvgjsClipPath100084f29b92-9072-4791-846f-127bd6412d61)"><path d=" M -4.8609536430671465 1.45867724640385 C -4.852087600679903 1.4466141173032332 -4.840524973972114 1.4330290523550366 -4.825918475569166 1.427870813408541 C -4.80505059008859 1.4204858495306865 -4.775837593282693 1.423090504840303 -4.7540197746891995 1.4231211478439456 C -4.6986785101107555 1.4232028625203261 -4.6433270311977655 1.423090504840303 -4.587985766619322 1.423090504840303 C -4.378019905660577 1.423070076171208 -4.168054044701832 1.4229372898220904 -3.9580881837430875 1.4230190044984705 C -3.897935967592764 1.4230496475021135 -3.8377837514424407 1.422978147160281 -3.7776417496266648 1.423090504840303 C -3.754169208836472 1.4231313621784936 -3.7190216836584686 1.4167474030862954 -3.6970608643813088 1.4256747314808247 C -3.681198002829016 1.4377174319123465 -3.6681032259390998 1.452640574686268 -3.653680585558007 1.4662460683035596 C -3.747979322100677 1.4728343140867075 -3.8431258484107915 1.4695044410242173 -3.9376697289826024 1.4694737980205748 C -4.090874532860799 1.4694329406823847 -4.244089551073543 1.4697189420497154 -4.39729435495174 1.4696678703769774 C -4.499437700426903 1.469637227373335 -4.601591260236614 1.4695963700351449 -4.703734605711777 1.4696065843696924 C -4.756757216347934 1.46961679870424 -4.813528487763029 1.4751121106908034 -4.8660097386681676 1.467390073772881 C -4.863772799402262 1.4617109037644624 -4.865315163918936 1.464693489452337 -4.8609536430671465 1.45867724640385 Z" fill="#fefdfb" transform="matrix(1,0,0,1,0,0)" fill-rule="evenodd"></path></g><g clip-path="url(#SvgjsClipPath100084f29b92-9072-4791-846f-127bd6412d61)"><path d=" M -0.7464460436402796 0.4237915130531428 C -0.7043731996390603 0.47866291824240037 -0.6773154274226902 0.5454033801758714 -0.6734544089637291 0.6145952824007469 C -0.7132800993644945 0.5508680491587928 -0.7486421255679963 0.48340236947244775 -0.8138912946575294 0.4414520974857984 C -0.8366284033603009 0.42683538474830274 -0.8619293100344994 0.4164167635098359 -0.8879554344615705 0.40929737233021724 C -0.9201612312898897 0.4004926159502581 -0.9538685352966931 0.3958246650620433 -0.9872694092670713 0.3978062459642614 C -1.1102193542155252 0.405119709500283 -1.2136088485054843 0.4954246412348745 -1.2738427793321891 0.5966997682734986 C -1.3812669357684175 0.7773198460772289 -1.3960879351968636 0.9924950176552069 -1.3316967702093203 1.1908573945679732 C -1.4086719953594038 1.184340649126658 -1.4873019427061838 1.188242524923809 -1.5645325262199536 1.1882118819201666 C -1.724907792950507 1.188140381578334 -1.8853239170192504 1.1883242396001887 -2.0454744683897577 1.1843712921303 C -2.0947790612506196 1.183145571984598 -2.144104082780575 1.186199658014306 -2.1933269609650563 1.1827267842681501 C -2.1711312119933037 1.1746778886447076 -2.145860948322748 1.1770986859324686 -2.1227765522453614 1.174473601953757 C -2.0849733000850037 1.1701733671092525 -2.047313048608311 1.1653215581991825 -2.0097855834807365 1.1588865274342472 C -1.9658128732536788 1.1513483485381801 -1.9220750927212142 1.1419920180926555 -1.8801656780727551 1.1264355865767879 C -1.8241911247523648 1.1056698444416875 -1.7707190833961173 1.0711045363328924 -1.7229057833791934 1.035701652791201 C -1.6741323359148037 0.9995735514966356 -1.635093149274197 0.9511576057414085 -1.6053796500754718 0.8985027111489622 C -1.595716889593521 0.881383486447325 -1.5862175584643303 0.8642744760802351 -1.5761257959313841 0.8474106097422854 C -1.5722647774724239 0.8409551503082554 -1.5697929085119249 0.8341626178341567 -1.5663506777694112 0.827513086043724 C -1.564941099601855 0.8247858587195372 -1.558761427200607 0.8189024020201675 -1.5617542272230294 0.8195561194312088 C -1.569946123530138 0.8213334136424765 -1.5814985359033793 0.8370532745111042 -1.5881276390247159 0.8437334493051797 C -1.6047055039953353 0.8604441006249165 -1.6246847423702775 0.8735184488457371 -1.643652761625015 0.8873180148194318 C -1.6921708507257174 0.9225881120120055 -1.7525886395742765 0.945958509456723 -1.808573407229213 0.9662339635335425 C -1.9052316550523596 1.001218059358786 -2.011552663357456 1.017203492925649 -2.113808366512642 1.0232095216395884 C -2.184317917894147 1.0273463271313323 -2.2551747566502676 1.025855034287395 -2.3257455940390575 1.0291031926735053 C -2.331220477356526 0.9919332292550934 -2.320903999463535 0.9520156098433997 -2.3228957947003006 0.9141510716757569 C -2.329392111472521 0.7904656946398824 -2.352282435193505 0.6589050656678727 -2.4194621135125196 0.5529517734064863 C -2.411780933932787 0.5908265259086766 -2.400003806199501 0.6272099855669296 -2.3948659959221 0.6659631708402064 C -2.381924434050397 0.7637347811290321 -2.388563751506282 0.8620375368143288 -2.409217135961361 0.9582259252482898 C -2.4185326090686954 1.0016266327406864 -2.424998282837273 1.0548841730714362 -2.449900830464118 1.092033707820753 C -2.4325773190715303 0.9919434435896409 -2.4318112439804667 0.8894732394089576 -2.4588077301895517 0.7905678379853575 C -2.479318113960965 0.7154209787192801 -2.5120652705203015 0.6419696989880906 -2.5558541227255045 0.5774253189823352 C -2.6579055391897395 0.42696817109742036 -2.85723827788452 0.32771548229920455 -3.0344467679493796 0.40498692315116525 C -3.099113719969705 0.43317848650231017 -3.1535867661116104 0.48373944251251577 -3.197130474287672 0.5384065610108232 C -3.3194573448287263 0.6919688665981828 -3.364717061208771 0.8810259847381617 -3.3444416071319516 1.074383337722645 C -3.3365765695303637 1.149387196305057 -3.3170161188718703 1.2252388446549127 -3.2779769322312635 1.2903450130607816 C -3.3104789447614595 1.294349032203408 -3.3464334023687172 1.290202012377117 -3.379292916608077 1.2902224410462115 C -3.4485256761711427 1.290253084049854 -3.5177584357342075 1.2902428697153066 -3.5869911952972733 1.290365441729877 C -3.8060273853342124 1.29076380077723 -4.025063575371152 1.2903143700571391 -4.244099765408091 1.290253084049854 C -4.330349606327319 1.2902224410462115 -4.416599447246546 1.2904062990680667 -4.502849288165773 1.290191798042569 C -4.526648687661487 1.290130512035284 -4.550509373164484 1.2904062990680667 -4.574288343991102 1.289578937969718 C -4.581724379541694 1.2893235796060298 -4.595738446540887 1.2918363059047193 -4.602050905291252 1.2884042894967536 C -4.602193905974917 1.2800693925059803 -4.575340420449496 1.2766475904325625 -4.567628597866122 1.27369564774833 C -4.529049056280153 1.258915505658074 -4.488099789079159 1.2506010373363958 -4.449244460460408 1.2362396829625881 C -4.425792348339311 1.2275677129317466 -4.402197235534548 1.2172920923769452 -4.379909557551867 1.205954181029202 C -4.272005327391906 1.1510317041672073 -4.146399655461098 1.021299441079203 -4.211117679154161 0.8906785308855648 C -4.200229198526508 0.8826296352621216 -4.181148821591748 0.879248690526894 -4.168237902723687 0.8747952406641769 C -4.135500960498898 0.8635084009891713 -4.10226351588128 0.8540601415327186 -4.069495930652847 0.8429775885486633 C -4.015554029907414 0.8247245727122522 -3.9599267639616405 0.8124571569206848 -3.905065573106931 0.797442085135836 C -3.829459068786215 0.7767580576771157 -3.7542202805092098 0.7543478076798648 -3.68080985811621 0.7267282470633806 C -3.5820372430417278 0.6895582836449691 -3.4893830143612075 0.6365969590160973 -3.4018359529544453 0.5780279647206387 C -3.273165980659383 0.49194155315417143 -3.144547080037057 0.39221900496676987 -2.988645691838317 0.36217864706252456 C -2.862284159150993 0.33782767350124576 -2.7369440599184207 0.35543718626116383 -2.6107357422493096 0.3697270402931391 C -2.52634491021773 0.37928765742961434 -2.4414842187969645 0.3848136124198206 -2.356797171063507 0.39022720973000424 C -2.2793520865242387 0.39518116198554976 -2.20166185795583 0.39311786640695134 -2.1241861304129186 0.3914325012066112 C -1.954893749622384 0.38774512643495784 -1.7865615162793151 0.3734961297411725 -1.6194039314092112 0.3461217131538289 C -1.53818975742191 0.3328226495729627 -1.4561788653399024 0.323803392167506 -1.3748931910107673 0.3109435449721828 C -1.2549258317501888 0.2919653113828975 -1.1279922963282036 0.27186350099338563 -1.006676644907353 0.2904025181971277 C -0.9415909051705791 0.30035128004640854 -0.8774448842121778 0.3255704720442262 -0.8227164797065845 0.36197436037157416 C -0.804994609266644 0.3737617024394081 -0.7878753845650062 0.38711183769301183 -0.7732076001547732 0.4025559115288563 C -0.7694385107067383 0.40651907333329274 -0.7489076982662315 0.42880675131597334 -0.7464460436402796 0.4237915130531428 Z M -4.0947253369852135 1.128989170213667 C -4.09749342164759 1.141409801023447 -4.095532269414466 1.1513789915418227 -4.086186153303489 1.1606331786418727 C -4.076717465177942 1.165862917930201 -4.06335711558979 1.1631561192751092 -4.0529691373549666 1.1621959718276424 C -4.031682464157942 1.1602348195945194 -4.010324290619086 1.1593768154925277 -3.9890886890947996 1.1567619458483636 C -3.89844668432014 1.145607892522476 -3.8071509621344393 1.1038312642231345 -3.7477852497442745 1.0334442848561998 C -3.725078784045146 1.0065192989889469 -3.698981159276242 0.9588694283247833 -3.7111464317223337 0.9225268260047205 C -3.7304106666789494 0.8649792651640137 -3.8128914181501434 0.8781659710648572 -3.858130705861093 0.8915467493221035 C -3.9695384527708533 0.9244879782378438 -4.062070109436803 1.018398570067708 -4.0947253369852135 1.128989170213667 Z" fill="#757a71" transform="matrix(1,0,0,1,0,0)" fill-rule="evenodd"></path></g><g clip-path="url(#SvgjsClipPath100084f29b92-9072-4791-846f-127bd6412d61)"><path d=" M -4.230688344147202 0.5468946730198089 C -4.225295175506114 0.5167828147737309 -4.206756158302372 0.49062390399754185 -4.1869914209529275 0.46805022464753077 C -4.159310574329158 0.43643685922296804 -4.127533779551835 0.4074077204389267 -4.09284589942847 0.38363896394685626 C -3.95314444582209 0.28787957756389115 -3.792033747004115 0.23198673891988186 -3.6231192965918386 0.22043432654664097 C -3.587981985748382 0.21803395792797475 -3.553590321326895 0.22089397160127933 -3.5186368685052942 0.22381527128186895 C -3.4876261488190345 0.22639949792239056 -3.4558084967035216 0.2308733764542028 -3.4282093647561322 0.24618466394092964 C -3.397055644386208 0.2634571036607797 -3.370263444868072 0.29355874757231015 -3.375227611458165 0.3314641430781431 C -3.384349012209098 0.40118719069948916 -3.444613586039443 0.4549043760848773 -3.495521829424265 0.49701807742428705 C -3.5417110502481335 0.5352196886319979 -3.594815375560671 0.5648412588197952 -3.6489615629970547 0.5901523798285405 C -3.7525042723052273 0.6385581112492204 -3.8637383755276797 0.6693849729136242 -3.9784249238271925 0.6727761319833997 C -4.008720640095126 0.6736749934235812 -4.038464782297493 0.6722245579178338 -4.068688998223594 0.6708864800921094 C -4.102498445575873 0.6693849729136242 -4.137656185088424 0.6671991053204559 -4.168789476789254 0.6527253932666254 C -4.20902374057192 0.6340229467101229 -4.238870026119763 0.5925221054435642 -4.230688344147202 0.5468946730198089 Z" fill="#1c282c" transform="matrix(1,0,0,1,0,0)" fill-rule="evenodd"></path></g><g clip-path="url(#SvgjsClipPath100084f29b92-9072-4791-846f-127bd6412d61)"><path d=" M -4.0947253369852135 1.128989170213667 C -4.062070109436803 1.018398570067708 -3.9695384527708533 0.9244879782378438 -3.858130705861093 0.8915467493221035 C -3.8128914181501434 0.8781659710648572 -3.7304106666789494 0.8649792651640137 -3.7111464317223337 0.9225268260047205 C -3.698981159276242 0.9588694283247833 -3.725078784045146 1.0065192989889469 -3.7477852497442745 1.0334442848561998 C -3.8071509621344393 1.1038312642231345 -3.89844668432014 1.145607892522476 -3.9890886890947996 1.1567619458483636 C -4.010324290619086 1.1593768154925277 -4.031682464157942 1.1602348195945194 -4.0529691373549666 1.1621959718276424 C -4.06335711558979 1.1631561192751092 -4.076717465177942 1.165862917930201 -4.086186153303489 1.1606331786418727 C -4.095532269414466 1.1513789915418227 -4.09749342164759 1.141409801023447 -4.0947253369852135 1.128989170213667 Z" fill="#1c272c" transform="matrix(1,0,0,1,0,0)" fill-rule="evenodd"></path></g><g clip-path="url(#SvgjsClipPath100084f29b92-9072-4791-846f-127bd6412d61)"><path d=" M -2.449900830464118 1.092033707820753 C -2.424998282837273 1.0548841730714362 -2.4185326090686954 1.0016266327406864 -2.409217135961361 0.9582259252482898 C -2.388563751506282 0.8620375368143288 -2.381924434050397 0.7637347811290321 -2.3948659959221 0.6659631708402064 C -2.400003806199501 0.6272099855669296 -2.411780933932787 0.5908265259086766 -2.4194621135125196 0.5529517734064863 C -2.352282435193505 0.6589050656678727 -2.329392111472521 0.7904656946398824 -2.3228957947003006 0.9141510716757569 C -2.320903999463535 0.9520156098433997 -2.331220477356526 0.9919332292550934 -2.3257455940390575 1.0291031926735053 C -2.331506478723857 1.043474761381861 -2.3309242616546486 1.0619627069128654 -2.3327321988695586 1.077345494741425 C -2.335765856230171 1.1031979754811885 -2.3407300228202637 1.129121956562785 -2.346082334123162 1.1545965069242903 C -2.354008657732035 1.1923486874119105 -2.3637429185558183 1.2297535805249153 -2.3765108367402137 1.2661574688522634 C -2.3841307303126604 1.2878629297657351 -2.394682137900245 1.3087001722426685 -2.401883243756244 1.3304669191634257 C -2.3734465363759587 1.3340827935932467 -2.342323459009676 1.3308754925453266 -2.3135803215929656 1.3309980645598967 C -2.251170737507641 1.331263637258132 -2.188750939087769 1.3311410652435618 -2.1263311406678973 1.3311512795781093 C -1.9478662874536923 1.3311819225817518 -1.769289076559465 1.3328060017748071 -1.590834437679808 1.3313759949381545 C -1.5856761987333128 1.3346445819933601 -1.582285039663537 1.3444809861626181 -1.5790573099465224 1.349761797123684 C -1.5705691979375365 1.3636226491046637 -1.5606919364300875 1.3766254969836518 -1.5508044605880924 1.3894955585135222 C -1.5375462543454166 1.4067373552297298 -1.523164471302513 1.4233254345348962 -1.5068521790301297 1.437758289250537 C -1.4956776970351475 1.447635550757985 -1.4821539180942347 1.455653803377785 -1.471571867503009 1.4659907099398715 C -1.605532865093684 1.4707608041735618 -1.7402497234408765 1.4695452983624073 -1.8743537217152175 1.4695452983624073 C -2.0267924505023514 1.4695452983624073 -2.1794048229767915 1.4718333093010512 -2.33182312309483 1.4697189420497154 C -2.375101258572656 1.4691162963114115 -2.4183793940504827 1.465479993212496 -2.461677958197404 1.4645402744341243 C -2.529235566894677 1.463069410259282 -2.5973447496575157 1.4667363563618405 -2.6645244279765303 1.4651633488415228 C -2.6379773724875353 1.442058524095041 -2.610122882176458 1.4194746304104826 -2.5880497052192757 1.3918244267903561 C -2.5484895875167455 1.3422746899003544 -2.519123375692636 1.2850846307688109 -2.4932096089455866 1.227516641259009 C -2.479992260041101 1.1981402151003522 -2.4711262176538566 1.167037566403165 -2.462076317244757 1.1362311334078559 C -2.4590528742186923 1.125914655514865 -2.4560498598617224 1.115577748952778 -2.4529242734901833 1.1052919140634292 C -2.4520866980572866 1.102513615066505 -2.4465709574016272 1.0856191057249132 -2.449900830464118 1.092033707820753 Z" fill="#fffffe" transform="matrix(1,0,0,1,0,0)" fill-rule="evenodd"></path></g><g clip-path="url(#SvgjsClipPath100084f29b92-9072-4791-846f-127bd6412d61)"><path d=" M -1.6232547355336253 -0.16116299781401966 C -1.6225193034462038 -0.15860941417714064 -1.615471412608418 -0.15602518753661904 -1.6131834016697741 -0.15470753837998946 C -1.6026830657549276 -0.1486708666624073 -1.5921827298400801 -0.14260355194118263 -1.5819377522889218 -0.13613787817260486 C -1.5434705683829755 -0.11184819061861112 -1.5017041544181815 -0.08614892489706011 -1.4684258524623743 -0.055015633196230485 C -1.4749119549000458 -0.045720588757990566 -1.5015407250654222 -0.040756422167897766 -1.512112561322101 -0.036456187323393396 C -1.5550331950907639 -0.019020318250783097 -1.5984543312522552 -0.002268809592856469 -1.642437255813861 0.012368331813734312 C -1.7644168389803 0.05296009730556406 -1.8896037231946599 0.06415500796964191 -2.0173748340495408 0.06574844415905445 C -2.1068421903512364 0.06686180662473373 -2.192520028535802 0.06559522914084182 -2.2800262326043748 0.0443391989474603 C -2.2864510490347625 0.03923203167370226 -2.2708435458461573 0.019549009000638273 -2.267493244114572 0.01352255161760374 C -2.251150308838546 -0.015894731879243063 -2.2331935087040127 -0.04540394438701767 -2.2129486976308352 -0.07231871591972305 C -2.1328274574401176 -0.17881336791212787 -1.9970993799727212 -0.23356220108681514 -1.8653446786443082 -0.23210155124652027 C -1.8058461799050258 -0.23143761950093178 -1.7516284921268097 -0.21022244664574047 -1.6977172343850189 -0.18702569288833093 C -1.6777992820173617 -0.17845586620296472 -1.6579221869878955 -0.1697021814957433 -1.6379633772820483 -0.16125492682494735 C -1.6346539328886536 -0.15985556299193765 -1.6188523573436457 -0.15469732404544195 -1.6183722836199124 -0.15487096773274972 C -1.6158902003248663 -0.15580047217657367 -1.62163065634057 -0.15905884489723138 -1.6232547355336253 -0.16116299781401966 Z" fill="#808379" transform="matrix(1,0,0,1,0,0)" fill-rule="evenodd"></path></g><g clip-path="url(#SvgjsClipPath100084f29b92-9072-4791-846f-127bd6412d61)"><path d=" M -1.2609522891332228 0.1612320435092367 C -1.3456904085394177 0.15676837931197218 -1.4317972487749806 0.15546094448989 -1.5163821531629624 0.16468448858629714 C -1.5485266639839956 0.16818800533609524 -1.5803443160995094 0.17191623744593876 -1.6126216132696607 0.1739080326827045 C -1.6266969662761381 0.17477625111924333 -1.642518970490241 0.17913777197103287 -1.655899748747487 0.17357095964263636 C -1.5801196007394642 0.15605337589364587 -1.5053813148552875 0.12869938797539737 -1.434616405110095 0.09541087168504181 C -1.4109804349671418 0.08428746136279652 -1.3871503924677864 0.07371562510611729 -1.3637493520194273 0.0620814980564961 C -1.357212177909017 0.05883333967038595 -1.3434636836080598 0.049262508199363175 -1.3366609367994133 0.04974258192309644 C -1.3171515578136583 0.0736441247642845 -1.298275467569848 0.09735159524906989 -1.2814524585700875 0.1232653619961187 C -1.273679349979428 0.1352365620858078 -1.2645783778975908 0.14723840517913944 -1.2609522891332228 0.1612320435092367 Z" fill="#7b8075" transform="matrix(1,0,0,1,0,0)" fill-rule="evenodd"></path></g></g><g><path d=" M 0.28425 0.9494999999999999 Q 0.17400000000000002 0.8339999999999999 0.17400000000000002 0.6119999999999999 L 0.17400000000000002 0.00749999999999984 L 0.2505 0.00749999999999984 L 0.2505 0.6089999999999999 Q 0.2505 0.8024999999999999 0.339 0.8984999999999999 Q 0.4275 0.9944999999999999 0.5955 0.9944999999999999 Q 0.762 0.9944999999999999 0.8505 0.8984999999999999 Q 0.9390000000000001 0.8024999999999999 0.9390000000000001 0.6089999999999999 L 0.9390000000000001 0.00749999999999984 L 1.0155 0.00749999999999984 L 1.0155 0.6119999999999999 Q 1.0155 0.8339999999999999 0.9045 0.9494999999999999 Q 0.7935 1.065 0.594 1.065 Q 0.3945 1.065 0.28425 0.9494999999999999 M 1.684544677734375 0.5399999999999999 L 1.449044677734375 0.7814999999999999 L 1.449044677734375 1.0574999999999999 L 1.372544677734375 1.0574999999999999 L 1.372544677734375 0.00749999999999984 L 1.449044677734375 0.00749999999999984 L 1.449044677734375 0.6824999999999999 L 2.104544677734375 0.00749999999999984 L 2.197544677734375 0.00749999999999984 L 1.735544677734375 0.4844999999999998 L 2.2290446777343753 1.0574999999999999 L 2.136044677734375 1.0574999999999999 L 1.684544677734375 0.5399999999999999 M 2.81257763671875 0.00749999999999984 L 3.22807763671875 0.00749999999999984 Q 3.39157763671875 0.00749999999999984 3.51832763671875 0.07499999999999984 Q 3.6450776367187503 0.14249999999999985 3.7155776367187503 0.2617499999999998 Q 3.7860776367187503 0.3809999999999999 3.7860776367187503 0.5324999999999999 Q 3.7860776367187503 0.6839999999999999 3.7155776367187503 0.8032499999999998 Q 3.6450776367187503 0.9224999999999999 3.51832763671875 0.9899999999999999 Q 3.39157763671875 1.0574999999999999 3.22807763671875 1.0574999999999999 L 2.81257763671875 1.0574999999999999 L 2.81257763671875 0.00749999999999984 M 3.2220776367187502 0.9884999999999999 Q 3.36757763671875 0.9884999999999999 3.47857763671875 0.9307499999999999 Q 3.58957763671875 0.8729999999999999 3.64957763671875 0.7694999999999999 Q 3.70957763671875 0.6659999999999999 3.70957763671875 0.5324999999999999 Q 3.70957763671875 0.3989999999999999 3.64957763671875 0.2954999999999999 Q 3.58957763671875 0.19199999999999984 3.47857763671875 0.13424999999999987 Q 3.36757763671875 0.0764999999999999 3.2220776367187502 0.0764999999999999 L 2.88907763671875 0.0764999999999999 L 2.88907763671875 0.9884999999999999 L 3.2220776367187502 0.9884999999999999 M 4.780560791015625 1.0574999999999999 L 4.530060791015625 0.7064999999999999 Q 4.474560791015625 0.7139999999999999 4.428060791015625 0.7139999999999999 L 4.128060791015625 0.7139999999999999 L 4.128060791015625 1.0574999999999999 L 4.051560791015625 1.0574999999999999 L 4.051560791015625 0.00749999999999984 L 4.428060791015625 0.00749999999999984 Q 4.626060791015625 0.00749999999999984 4.738560791015625 0.10124999999999984 Q 4.851060791015625 0.19499999999999984 4.851060791015625 0.3614999999999998 Q 4.851060791015625 0.4859999999999999 4.787310791015625 0.5707499999999999 Q 4.723560791015625 0.6554999999999999 4.605060791015625 0.69 L 4.867560791015625 1.0574999999999999 L 4.780560791015625 1.0574999999999999 M 4.428060791015625 0.6464999999999999 Q 4.596060791015625 0.6464999999999999 4.684560791015625 0.5722499999999999 Q 4.773060791015625 0.4979999999999999 4.773060791015625 0.3614999999999998 Q 4.773060791015625 0.22499999999999987 4.684560791015625 0.15074999999999983 Q 4.596060791015625 0.0764999999999999 4.428060791015625 0.0764999999999999 L 4.128060791015625 0.0764999999999999 L 4.128060791015625 0.6464999999999999 L 4.428060791015625 0.6464999999999999 M 5.856016845703125 0.9884999999999999 L 5.856016845703125 1.0574999999999999 L 5.131516845703125 1.0574999999999999 L 5.131516845703125 0.00749999999999984 L 5.833516845703125 0.00749999999999984 L 5.833516845703125 0.0764999999999999 L 5.208016845703125 0.0764999999999999 L 5.208016845703125 0.4904999999999998 L 5.767516845703125 0.4904999999999998 L 5.767516845703125 0.5579999999999998 L 5.208016845703125 0.5579999999999998 L 5.208016845703125 0.9884999999999999 L 5.856016845703125 0.9884999999999999 M 6.7845263671875 0.7619999999999999 L 6.1755263671875 0.7619999999999999 L 6.0420263671875 1.0574999999999999 L 5.9595263671875 1.0574999999999999 L 6.4425263671875 0.00749999999999984 L 6.5190263671875 0.00749999999999984 L 7.0020263671875 1.0574999999999999 L 6.9195263671875 1.0574999999999999 L 6.7845263671875 0.7619999999999999 M 6.7560263671875 0.6974999999999999 L 6.4800263671875005 0.09149999999999991 L 6.2055263671875 0.6974999999999999 L 6.7560263671875 0.6974999999999999 M 8.185552001953125 1.0574999999999999 L 8.184052001953125 0.15899999999999992 L 7.744552001953125 0.9179999999999999 L 7.707052001953125 0.9179999999999999 L 7.267552001953125 0.1619999999999998 L 7.267552001953125 1.0574999999999999 L 7.192552001953125 1.0574999999999999 L 7.192552001953125 0.00749999999999984 L 7.257052001953125 0.00749999999999984 L 7.726552001953125 0.8189999999999998 L 8.196052001953126 0.00749999999999984 L 8.259052001953124 0.00749999999999984 L 8.260552001953124 1.0574999999999999 L 8.185552001953125 1.0574999999999999 M 9.177821044921876 0.9959999999999999 Q 9.054071044921875 0.9269999999999998 8.982821044921875 0.8054999999999999 Q 8.911571044921875 0.6839999999999999 8.911571044921875 0.5324999999999999 Q 8.911571044921875 0.3809999999999999 8.982821044921875 0.25949999999999984 Q 9.054071044921875 0.1379999999999999 9.177821044921876 0.06899999999999984 Q 9.301571044921875 -2.220446049250313e-16 9.456071044921876 -2.220446049250313e-16 Q 9.570071044921875 -2.220446049250313e-16 9.666071044921875 0.03674999999999984 Q 9.762071044921875 0.0734999999999999 9.829571044921876 0.14549999999999985 L 9.781571044921876 0.19499999999999984 Q 9.655571044921874 0.0704999999999999 9.459071044921876 0.0704999999999999 Q 9.327071044921874 0.0704999999999999 9.219071044921876 0.13049999999999984 Q 9.111071044921875 0.1904999999999999 9.049571044921874 0.2962499999999999 Q 8.988071044921876 0.4019999999999999 8.988071044921876 0.5324999999999999 Q 8.988071044921876 0.6629999999999998 9.049571044921874 0.7687499999999998 Q 9.111071044921875 0.8744999999999998 9.219071044921876 0.9344999999999999 Q 9.327071044921874 0.9944999999999999 9.459071044921876 0.9944999999999999 Q 9.654071044921874 0.9944999999999999 9.781571044921876 0.8684999999999998 L 9.829571044921876 0.9179999999999999 Q 9.762071044921875 0.9899999999999999 9.665321044921875 1.0274999999999999 Q 9.568571044921875 1.065 9.456071044921876 1.065 Q 9.301571044921875 1.065 9.177821044921876 0.9959999999999999 M 10.707103271484375 0.7619999999999999 L 10.098103271484375 0.7619999999999999 L 9.964603271484375 1.0574999999999999 L 9.882103271484375 1.0574999999999999 L 10.365103271484376 0.00749999999999984 L 10.441603271484375 0.00749999999999984 L 10.924603271484376 1.0574999999999999 L 10.842103271484374 1.0574999999999999 L 10.707103271484375 0.7619999999999999 M 10.678603271484375 0.6974999999999999 L 10.402603271484375 0.09149999999999991 L 10.128103271484376 0.6974999999999999 L 10.678603271484375 0.6974999999999999 M 11.84412890625 1.0574999999999999 L 11.59362890625 0.7064999999999999 Q 11.53812890625 0.7139999999999999 11.49162890625 0.7139999999999999 L 11.19162890625 0.7139999999999999 L 11.19162890625 1.0574999999999999 L 11.11512890625 1.0574999999999999 L 11.11512890625 0.00749999999999984 L 11.49162890625 0.00749999999999984 Q 11.68962890625 0.00749999999999984 11.80212890625 0.10124999999999984 Q 11.91462890625 0.19499999999999984 11.91462890625 0.3614999999999998 Q 11.91462890625 0.4859999999999999 11.85087890625 0.5707499999999999 Q 11.78712890625 0.6554999999999999 11.66862890625 0.69 L 11.93112890625 1.0574999999999999 L 11.84412890625 1.0574999999999999 M 11.49162890625 0.6464999999999999 Q 11.65962890625 0.6464999999999999 11.74812890625 0.5722499999999999 Q 11.83662890625 0.4979999999999999 11.83662890625 0.3614999999999998 Q 11.83662890625 0.22499999999999987 11.74812890625 0.15074999999999983 Q 11.65962890625 0.0764999999999999 11.49162890625 0.0764999999999999 L 11.19162890625 0.0764999999999999 L 11.19162890625 0.6464999999999999 L 11.49162890625 0.6464999999999999 M 12.2513349609375 1.0252499999999998 Q 12.1470849609375 0.9854999999999998 12.0885849609375 0.9224999999999999 L 12.1230849609375 0.8654999999999999 Q 12.1785849609375 0.9239999999999999 12.2723349609375 0.9607499999999999 Q 12.3660849609375 0.9974999999999998 12.4695849609375 0.9974999999999998 Q 12.6195849609375 0.9974999999999998 12.6960849609375 0.9404999999999999 Q 12.7725849609375 0.8834999999999998 12.7725849609375 0.7919999999999998 Q 12.7725849609375 0.7214999999999998 12.7320849609375 0.6794999999999999 Q 12.6915849609375 0.6375 12.6315849609375 0.6149999999999999 Q 12.5715849609375 0.5924999999999998 12.4695849609375 0.5684999999999999 Q 12.3540849609375 0.5399999999999999 12.2843349609375 0.5129999999999999 Q 12.2145849609375 0.4859999999999999 12.1658349609375 0.42974999999999985 Q 12.1170849609375 0.37349999999999983 12.1170849609375 0.2789999999999999 Q 12.1170849609375 0.2024999999999999 12.1575849609375 0.13874999999999982 Q 12.1980849609375 0.07499999999999984 12.2813349609375 0.03749999999999987 Q 12.3645849609375 -2.220446049250313e-16 12.4890849609375 -2.220446049250313e-16 Q 12.5760849609375 -2.220446049250313e-16 12.6600849609375 0.025499999999999856 Q 12.7440849609375 0.050999999999999934 12.8055849609375 0.09449999999999992 L 12.7770849609375 0.15599999999999992 Q 12.7140849609375 0.11249999999999982 12.6383349609375 0.08999999999999986 Q 12.5625849609375 0.0674999999999999 12.4890849609375 0.0674999999999999 Q 12.3435849609375 0.0674999999999999 12.2685849609375 0.1259999999999999 Q 12.1935849609375 0.1844999999999999 12.1935849609375 0.27749999999999986 Q 12.1935849609375 0.34799999999999986 12.2340849609375 0.3899999999999999 Q 12.2745849609375 0.43199999999999983 12.3345849609375 0.4544999999999999 Q 12.3945849609375 0.47699999999999987 12.4980849609375 0.5024999999999998 Q 12.6135849609375 0.5309999999999999 12.6825849609375 0.5579999999999998 Q 12.7515849609375 0.5849999999999999 12.8003349609375 0.6397499999999998 Q 12.8490849609375 0.6944999999999999 12.8490849609375 0.7874999999999999 Q 12.8490849609375 0.8639999999999999 12.8078349609375 0.9269999999999998 Q 12.7665849609375 0.9899999999999999 12.6810849609375 1.0274999999999999 Q 12.5955849609375 1.065 12.4710849609375 1.065 Q 12.3555849609375 1.065 12.2513349609375 1.0252499999999998" fill="#ffffff" fill-rule="nonzero"></path></g><g></g></g><defs><clipPath id="SvgjsClipPath1001"><path d=" M -6.161601652953398 -0.5803653569399353 h 5.761601652953398 v 2.2182307138798705 h -5.761601652953398 Z"></path></clipPath><clipPath id="SvgjsClipPath100084f29b92-9072-4791-846f-127bd6412d61"><path d=" M -6.161601652953398 -0.5803653569399353 L -0.40000000000000036 -0.5803653569399353 L -0.40000000000000036 1.637865356939935 L -6.161601652953398 1.637865356939935 Z"></path></clipPath></defs></svg>